<svg height="16" viewBox="0 0 16 16" width="16" xmlns="http://www.w3.org/2000/svg"><path d="m4.996094 0c-1.03125.00390625-1.386719 1.371094-.484375 1.871094l.488281.273437v2.683594c-.128906.207031-.25.390625-.441406.714844-.269532.472656-.601563 1.0625-.964844 1.707031-.722656 1.296875-1.554688 2.910156-2.203125 4.09375-.574219 1.046875-.550781 2.453125.300781 3.511719.671875.902343 1.738282 1.140625 2.617188 1.140625h7.351562c.878906 0 1.949219-.238282 2.621094-1.140625.851562-1.058594.867188-2.464844.296875-3.511719-1.164063-2.371094-2.472656-4.316406-3.5625-6.496094v-2.699218l.488281-.277344c.902344-.5.546875-1.871094-.484375-1.871094zm2.003906 2h2.015625v3.105469c0 .152343.035156.304687.101563.441406 1.203124 2.457031 2.574218 4.441406 3.6875 6.714844.003906.011719.011718.027343.015624.039062.242188.441407.257813.882813-.097656 1.316407-.011718.011718-.023437.027343-.035156.042968-.144531.199219-.488281.335938-1.027344.335938h-7.351562c-.539063 0-.882813-.136719-1.027344-.335938-.011719-.015625-.023438-.027344-.035156-.042968-.351563-.433594-.339844-.875-.097656-1.316407.644531-1.179687 1.472656-2.789062 2.191406-4.070312.359375-.644531.6875-1.230469.953125-1.683594.261719-.453125.488281-.8125.515625-.847656.125-.171875.191406-.378907.191406-.589844zm0 0" fill="#2e3436"/><path d="m6.21875 9-2.21875 4h8l-2.21875-4zm0 0" fill="#2e3434" fill-opacity=".34902"/></svg>